<?xml version="1.0" standalone="no"?>
<!DOCTYPE svg PUBLIC "-//W3C//DTD SVG 20010904//EN"
 "http://www.w3.org/TR/2001/REC-SVG-20010904/DTD/svg10.dtd">
<svg version="1.0" xmlns="http://www.w3.org/2000/svg"
 width="62.000000pt" height="62.000000pt" viewBox="0 0 62.000000 62.000000"
 preserveAspectRatio="xMidYMid meet">
<metadata>
Created by potrace 1.16, written by Peter Selinger 2001-2019
</metadata>
<g transform="translate(0.000000,62.000000) scale(0.012400,-0.012400)"
fill="#000000" stroke="none">
<path d="M2337 4259 c-224 -14 -521 -100 -726 -210 -554 -296 -918 -832 -992
-1464 -18 -150 -6 -421 24 -566 122 -579 477 -1048 998 -1314 528 -270 1154
-273 1684 -8 539 270 910 764 1021 1358 24 126 27 518 5 630 -50 261 -120 453
-235 649 -230 391 -597 690 -1018 831 -141 47 -305 82 -414 90 -182 12 -222
12 -347 4z m-1007 -1729 l0 -30 -70 0 -70 0 0 -45 0 -45 65 0 65 0 0 -30 0
-30 -65 0 -65 0 0 -50 0 -49 68 -3 67 -3 3 -32 3 -33 -110 0 -111 0 0 190 0
190 110 0 110 0 0 -30z m326 -155 c35 -99 64 -183 64 -187 0 -5 -18 -8 -39 -8
-37 0 -40 2 -53 43 l-15 42 -70 3 -71 3 -14 -43 c-14 -41 -17 -43 -58 -46 -38
-3 -42 -1 -36 15 4 10 35 96 68 191 l61 173 50 -3 49 -3 64 -180z m324 169
c18 -18 -6 -68 -28 -59 -40 16 -98 17 -111 2 -23 -28 -7 -51 59 -87 81 -44
109 -89 90 -146 -17 -49 -60 -74 -132 -74 -84 0 -108 12 -108 54 l0 35 41 -14
c70 -25 129 -14 129 24 0 22 -22 42 -77 70 -63 32 -83 57 -83 109 0 35 6 49
30 74 30 29 33 30 105 26 41 -2 79 -8 85 -14z m163 -59 c21 -42 41 -74 45 -71
4 2 23 36 42 75 l34 71 43 0 44 0 -52 -97 c-29 -54 -56 -102 -61 -107 -4 -6
-8 -47 -8 -93 l0 -83 -40 0 -40 0 0 71 c0 69 -2 76 -64 190 l-64 119 42 0 42
0 37 -75z m631 46 c42 -39 32 -122 -16 -140 -19 -7 -18 -9 15 -28 43 -26 55
-66 33 -117 -21 -50 -63 -66 -171 -66 l-85 0 0 191 0 191 99 -4 c89 -3 102 -6
125 -27z m328 -144 c37 -94 70 -180 74 -189 5 -14 1 -18 -17 -18 -20 0 -28 10
-47 60 l-24 60 -76 0 -77 0 -21 -57 c-15 -44 -26 -59 -42 -61 -12 -2 -22 0
-22 4 0 4 32 90 72 191 94 241 90 241 180 10z m286 16 l102 -156 0 156 c0 150
1 157 20 157 19 0 20 -7 20 -190 l0 -190 -24 0 c-20 0 -39 23 -113 136 -131
202 -119 200 -114 20 l3 -156 -26 0 -26 0 0 190 0 190 28 0 c25 0 39 -16 130
-157z m292 65 l1 -93 87 93 c69 74 93 93 111 90 20 -3 16 -10 -48 -80 -39 -42
-71 -79 -71 -83 0 -6 100 -148 143 -202 7 -10 3 -13 -16 -13 -21 0 -39 17 -88
83 -34 45 -66 86 -70 91 -5 6 -17 2 -29 -9 -17 -15 -20 -31 -20 -92 0 -66 -2
-73 -20 -73 -19 0 -20 7 -20 190 0 183 1 190 20 190 19 0 20 -7 20 -92z"/>
<path d="M2600 2460 l0 -60 60 0 c65 0 100 21 100 60 0 39 -35 60 -100 60
l-60 0 0 -60z"/>
<path d="M2600 2290 l0 -70 60 0 c51 0 65 4 85 25 14 13 25 34 25 45 0 12 -11
32 -25 45 -20 21 -34 25 -85 25 l-60 0 0 -70z"/>
</g>
</svg>
